<svg width="88" height="54" viewBox="0 0 88 54" fill="none" xmlns="http://www.w3.org/2000/svg">
<rect width="88" height="54" rx="4" fill="#016FD0"/>
<path d="M17.0405 42.8402V29.0586H31.6327L33.1983 31.0995L34.8157 29.0586H88V41.6875C88 41.6875 86.5 42.8402 84.7946 42.8402H55.4662L53.701 40.6678V42.8402H47.9168V39.1317C47.9168 39.1317 47.1267 39.6494 45.4185 39.6494H43.4497V42.8402H34.6919L33.1285 40.7555L31.5412 42.8402H17.0405Z" fill="white"/>
<path d="M0 18.6715L3.2906 11H8.98134L10.8488 15.2973V11H17.9229L19.0346 14.1059L20.1124 11H51.8678V12.5615C51.8678 12.5615 53.5372 11 56.2807 11L66.5842 11.036L68.4194 15.277V11H74.3394L75.9687 13.4361V11H81.943V24.7816H75.9687L74.4073 22.3376V24.7816H65.7095L64.8348 22.6091H62.4965L61.6361 24.7816H55.7376C53.3769 24.7816 51.8678 23.252 51.8678 23.252V24.7816H42.9743L41.2091 22.6091V24.7816H8.13829L7.26421 22.6091H4.93341L4.06551 24.7816H0V18.6715Z" fill="white"/>
<path d="M4.45514 12.699L0.0168457 23.0182H2.90641L3.72533 20.9518H8.4861L9.30078 23.0182H12.254L7.81993 12.699H4.45514ZM6.09723 15.1006L7.54838 18.7115H4.64184L6.09723 15.1006Z" fill="#016FD0"/>
<path d="M12.5597 23.0165V12.6973L16.6659 12.7125L19.0542 19.3657L21.3854 12.6973H25.4588V23.0165H22.8789V15.4129L20.1443 23.0165H17.8818L15.1395 15.4129V23.0165H12.5597Z" fill="#016FD0"/>
<path d="M27.2236 23.0165V12.6973H35.642V15.0055H29.8306V16.7707H35.5062V18.9431H29.8306V20.7762H35.642V23.0165H27.2236Z" fill="#016FD0"/>
<path d="M37.1355 12.699V23.0182H39.7153V19.3522H40.8016L43.8948 23.0182H47.0474L43.6529 19.2164C45.046 19.0988 46.4831 17.9032 46.4831 16.0468C46.4831 13.8753 44.7787 12.699 42.8764 12.699H37.1355ZM39.7153 15.0072H42.6643C43.3717 15.0072 43.8863 15.5606 43.8863 16.0935C43.8863 16.779 43.2195 17.1797 42.7025 17.1797H39.7153V15.0072Z" fill="#016FD0"/>
<path d="M50.1704 23.0165H47.5363V12.6973H50.1704V23.0165Z" fill="#016FD0"/>
<path d="M56.4165 23.0165H55.848C53.0969 23.0165 51.4266 20.8491 51.4266 17.8993C51.4266 14.8766 53.0782 12.6973 56.5523 12.6973H59.4037V15.1413H56.4481C55.0378 15.1413 54.0404 16.2419 54.0404 17.9248C54.0404 19.9232 55.1809 20.7626 56.8239 20.7626H57.5028L56.4165 23.0165Z" fill="#016FD0"/>
<path d="M62.0298 12.699L57.5916 23.0182H60.4811L61.3 20.9518H66.0608L66.8755 23.0182H69.8287L65.3946 12.699H62.0298ZM63.6719 15.1006L65.1231 18.7115H62.2165L63.6719 15.1006Z" fill="#016FD0"/>
<path d="M70.1302 23.0165V12.6973H73.4102L77.5981 19.1808V12.6973H80.1779V23.0165H77.0041L72.7101 16.3633V23.0165H70.1302Z" fill="#016FD0"/>
<path d="M18.8053 41.0751V30.7559H27.2236V33.0641H21.4123V34.8293H27.0879V37.0017H21.4123V38.8348H27.2236V41.0751H18.8053Z" fill="#016FD0"/>
<path d="M60.0553 41.0751V30.7559H68.4736V33.0641H62.6623V34.8293H68.3107V37.0017H62.6623V38.8348H68.4736V41.0751H60.0553Z" fill="#016FD0"/>
<path d="M27.5506 41.0751L31.6494 35.9791L27.453 30.7559H30.7032L33.2024 33.9849L35.7101 30.7559H38.833L34.6918 35.9155L38.7982 41.0751H35.5484L33.1218 37.897L30.7541 41.0751H27.5506Z" fill="#016FD0"/>
<path d="M39.1045 30.7576V41.0768H41.7522V37.8181H44.4678C46.7656 37.8181 48.5072 36.5991 48.5072 34.2284C48.5072 32.2646 47.1412 30.7576 44.803 30.7576H39.1045ZM41.7522 33.0913H44.6121C45.3544 33.0913 45.885 33.5463 45.885 34.2794C45.885 34.9681 45.3571 35.4674 44.6036 35.4674H41.7522V33.0913Z" fill="#016FD0"/>
<path d="M49.6272 30.7559V41.0751H52.207V37.4091H53.2933L56.3865 41.0751H59.5391L56.1446 37.2733C57.5377 37.1557 58.9748 35.96 58.9748 34.1037C58.9748 31.9322 57.2704 30.7559 55.3681 30.7559H49.6272ZM52.207 33.0641H55.156C55.8634 33.0641 56.378 33.6175 56.378 34.1504C56.378 34.8359 55.7112 35.2366 55.1942 35.2366H52.207V33.0641Z" fill="#016FD0"/>
<path d="M69.6688 41.0751V38.8348H74.8318C75.5957 38.8348 75.9265 38.4219 75.9265 37.9692C75.9265 37.5354 75.5968 37.0968 74.8318 37.0968H72.4987C70.4706 37.0968 69.3412 35.8612 69.3412 34.0061C69.3412 32.3515 70.3755 30.7559 73.3891 30.7559H78.413L77.3267 33.0777H72.9818C72.1512 33.0777 71.8955 33.5135 71.8955 33.9297C71.8955 34.3575 72.2115 34.8293 72.846 34.8293H75.29C77.5508 34.8293 78.5318 36.1116 78.5318 37.7909C78.5318 39.5964 77.4386 41.0751 75.167 41.0751H69.6688Z" fill="#016FD0"/>
<path d="M79.1369 41.0751V38.8348H84.2999C85.0639 38.8348 85.3946 38.4219 85.3946 37.9692C85.3946 37.5354 85.0649 37.0968 84.2999 37.0968H81.9668C79.9388 37.0968 78.8093 35.8612 78.8093 34.0061C78.8093 32.3515 79.8436 30.7559 82.8573 30.7559H87.8811L86.7949 33.0777H82.4499C81.6194 33.0777 81.3637 33.5135 81.3637 33.9297C81.3637 34.3575 81.6796 34.8293 82.3141 34.8293H84.7582C87.0189 34.8293 87.9999 36.1116 87.9999 37.7909C87.9999 39.5964 86.9068 41.0751 84.6351 41.0751H79.1369Z" fill="#016FD0"/>
</svg>
