<svg width="88" height="55" viewBox="0 0 88 55" fill="none" xmlns="http://www.w3.org/2000/svg">
<rect width="88" height="54.0484" rx="4" fill="white"/>
<path d="M25.228 18.8764C24.5571 19.6735 23.4836 20.3022 22.4101 20.2123C22.276 19.1346 22.8015 17.9894 23.4165 17.2822C24.0875 16.4626 25.2616 15.8788 26.212 15.8339C26.3239 16.9566 25.8878 18.0568 25.228 18.8764ZM26.2009 20.4256C24.6466 20.3358 23.3159 21.3126 22.5779 21.3126C21.8287 21.3126 20.6993 20.4706 19.4693 20.493C17.8702 20.5155 16.383 21.4248 15.5667 22.8731C13.8894 25.7696 15.1306 30.0582 16.752 32.4158C17.5459 33.5834 18.4964 34.8632 19.7488 34.8183C20.9341 34.7734 21.4038 34.0437 22.8351 34.0437C24.2775 34.0437 24.6913 34.8183 25.9437 34.7959C27.2408 34.7734 28.0571 33.6283 28.851 32.4607C29.7568 31.136 30.1258 29.8449 30.1481 29.7775C30.1258 29.7551 27.6434 28.8008 27.621 25.9268C27.5986 23.5242 29.5779 22.3791 29.6673 22.3117C28.5491 20.6502 26.8047 20.4706 26.2009 20.4256ZM35.1801 17.1699V34.6724H37.8861V28.6885H41.6321C45.0538 28.6885 47.458 26.3309 47.458 22.918C47.458 19.5051 45.0986 17.1699 41.7216 17.1699H35.1801ZM37.8861 19.4601H41.0059C43.3542 19.4601 44.696 20.7175 44.696 22.9292C44.696 25.1409 43.3542 26.4095 40.9948 26.4095H37.8861V19.4601ZM52.4005 34.8071C54.1001 34.8071 55.6768 33.9426 56.3925 32.573H56.4484V34.6724H58.9532V25.9604C58.9532 23.4344 56.9404 21.8065 53.843 21.8065C50.9692 21.8065 48.8446 23.4569 48.7663 25.7247H51.204C51.4053 24.6469 52.4005 23.9396 53.7647 23.9396C55.4196 23.9396 56.3477 24.7143 56.3477 26.1401V27.1056L52.9708 27.3076C49.8286 27.4985 48.1289 28.7896 48.1289 31.0349C48.1289 33.3027 49.8845 34.8071 52.4005 34.8071ZM53.1273 32.7302C51.6848 32.7302 50.7679 32.0341 50.7679 30.9676C50.7679 29.8673 51.6513 29.2274 53.3398 29.1264L56.3477 28.9355V29.9235C56.3477 31.5626 54.9612 32.7302 53.1273 32.7302ZM62.2966 39.4325C64.9356 39.4325 66.1768 38.4221 67.2614 35.3572L72.0138 21.9749H69.263L66.0761 32.3148H66.0202L62.8333 21.9749H60.0043L64.5889 34.7173L64.3429 35.4919C63.9292 36.8055 63.2583 37.3107 62.0618 37.3107C61.8493 37.3107 61.4356 37.2882 61.2679 37.2658V39.3652C61.4244 39.4101 62.0953 39.4325 62.2966 39.4325Z" fill="black"/>
</svg>
