<svg width="88" height="54" viewBox="0 0 88 54" fill="none" xmlns="http://www.w3.org/2000/svg">
<rect width="88" height="54" rx="4" fill="white"/>
<path d="M49.5258 17.5554H39.0721V36.3363H49.5258V17.5554Z" fill="#FF5A00"/>
<path d="M39.768 26.9459C39.768 23.1302 41.5619 19.7436 44.3144 17.5554C42.2887 15.9626 39.7332 15 36.9459 15C30.3428 15 25 20.3428 25 26.9459C25 33.549 30.3428 38.8918 36.9459 38.8918C39.7332 38.8918 42.2887 37.9291 44.3144 36.3363C41.558 34.1791 39.768 30.7616 39.768 26.9459Z" fill="#EB001B"/>
<path d="M63.6289 26.9459C63.6289 33.549 58.2861 38.8918 51.683 38.8918C48.8956 38.8918 46.3402 37.9291 44.3145 36.3363C47.1018 34.1443 48.8608 30.7616 48.8608 26.9459C48.8608 23.1302 47.067 19.7436 44.3145 17.5554C46.3364 15.9626 48.8918 15 51.6791 15C58.2861 15 63.6289 20.3776 63.6289 26.9459Z" fill="#F79E1B"/>
</svg>
