<svg width="88" height="54" viewBox="0 0 88 54" fill="none" xmlns="http://www.w3.org/2000/svg">
<rect width="88" height="54" rx="4" fill="white"/>
<path d="M26 9H62.8V45.8H26V9Z" fill="white"/>
<path d="M51.9874 16.5887C50.7985 15.2441 48.6754 14.678 45.9437 14.678H38.0317C37.477 14.6775 37.0037 15.079 36.9136 15.6263L33.644 36.5174C33.6108 36.7137 33.6655 36.9148 33.7935 37.0674C33.9216 37.2199 34.1101 37.3086 34.3093 37.31H39.1923L40.4237 29.5254L40.3813 29.766C40.4714 29.2187 40.9447 28.8172 41.4994 28.8177H43.8206C48.3782 28.8177 51.945 26.9635 52.9923 21.5992L53.0631 21.1463C53.4764 19.5449 53.0799 17.8427 52.0016 16.5887" fill="#003086"/>
<path d="M51.9874 16.5887C50.7985 15.2441 48.6754 14.678 45.9437 14.678H38.0317C37.477 14.6775 37.0037 15.079 36.9136 15.6263L33.644 36.5174C33.6108 36.7137 33.6655 36.9148 33.7935 37.0674C33.9216 37.2199 34.1101 37.3086 34.3093 37.31H39.1923L40.4237 29.5254L40.3813 29.766C40.4714 29.2187 40.9447 28.8172 41.4994 28.8177H43.8206C48.3782 28.8177 51.945 26.9635 52.9923 21.5992L53.0631 21.1463C53.4764 19.5449 53.0799 17.8427 52.0016 16.5887" fill="#003086"/>
<path d="M41.7117 21.1746C41.7826 20.6833 42.2061 20.3203 42.7025 20.3254H48.9019C49.589 20.3227 50.2753 20.3748 50.9542 20.4811L51.4779 20.5801L51.9591 20.7075L52.1997 20.7783C52.4925 20.8773 52.7765 21.0004 53.049 21.1463C53.4623 19.5449 53.0658 17.8427 51.9874 16.5887C50.7985 15.2441 48.6754 14.678 45.9437 14.678H38.0317C37.477 14.6775 37.0037 15.079 36.9136 15.6263L33.644 36.5174C33.6108 36.7137 33.6655 36.9148 33.7935 37.0674C33.9216 37.2199 34.1101 37.3086 34.3093 37.31H39.1923L40.4237 29.5254L41.74 21.1746H41.7117Z" fill="#002F85"/>
<path d="M53.0489 21.1467L52.9781 21.5997C51.9307 26.964 48.364 28.8181 43.8064 28.8181H41.4852C40.9305 28.8177 40.4572 29.2191 40.367 29.7664L39.1781 37.3104L38.8384 39.4335C38.8042 39.6096 38.8514 39.7918 38.9668 39.9292C39.0822 40.0666 39.2535 40.1445 39.4329 40.1413H43.5375C44.0339 40.1463 44.4574 39.7833 44.5283 39.292L44.5566 39.0797L45.335 34.1683L45.3917 33.8852C45.4743 33.4105 45.8864 33.064 46.3683 33.0643H46.9769C50.9683 33.0643 54.0963 31.4366 55.0021 26.7517C55.4902 25.13 55.186 23.3732 54.1812 22.0101C53.8594 21.6559 53.4757 21.3633 53.0489 21.1467Z" fill="#009BDD"/>
<path d="M51.9581 20.7069L51.4769 20.5795C51.3033 20.5415 51.1286 20.5085 50.9532 20.4805C50.2739 20.3786 49.5876 20.3313 48.9009 20.3389H42.7015C42.2097 20.3328 41.7879 20.6883 41.7107 21.174L40.4086 29.5248L40.3661 29.7654C40.4562 29.2181 40.9296 28.8166 41.4842 28.8171H43.8055C48.363 28.8171 51.9298 26.9629 52.9772 21.5986L53.0479 21.1457C52.7754 20.9999 52.4914 20.8769 52.1987 20.7777L51.9581 20.7069Z" fill="#012069"/>
</svg>
