<svg width="88" height="54" viewBox="0 0 88 54" fill="none" xmlns="http://www.w3.org/2000/svg">
<rect width="88" height="54" rx="4" fill="white"/>
<path d="M38.1011 35.7404H33.5957L36.4137 18.3159H40.9189L38.1011 35.7404Z" fill="#00579F"/>
<path d="M54.4332 18.7418C53.5446 18.3893 52.1351 18 50.3922 18C45.943 18 42.8099 20.3726 42.7906 23.7646C42.7537 26.2673 45.0339 27.6573 46.7393 28.4918C48.4823 29.3445 49.0749 29.901 49.0749 30.6611C49.0571 31.8284 47.6664 32.3665 46.3692 32.3665C44.5704 32.3665 43.6066 32.0891 42.1419 31.4396L41.5487 31.1612L40.9182 35.0727C41.9749 35.5541 43.9217 35.9813 45.943 36C50.6704 36 53.7481 33.6641 53.7845 30.0494C53.8025 28.0658 52.5985 26.5459 50.0027 25.304C48.4269 24.5067 47.4619 23.9691 47.4619 23.1534C47.4804 22.4118 48.2781 21.6522 50.0569 21.6522C51.5216 21.615 52.5978 21.9671 53.413 22.3194L53.8205 22.5044L54.4332 18.7418Z" fill="#00579F"/>
<path d="M60.4217 29.5675C60.7927 28.5665 62.2204 24.6923 62.2204 24.6923C62.2017 24.7295 62.5907 23.6728 62.8132 23.0241L63.1281 24.5255C63.1281 24.5255 63.9813 28.6963 64.1665 29.5675C63.4624 29.5675 61.3116 29.5675 60.4217 29.5675ZM65.9831 18.3159H62.4981C61.4234 18.3159 60.6069 18.6308 60.1433 19.7616L53.451 35.7401H58.1784C58.1784 35.7401 58.9567 33.5896 59.124 33.1264C59.6426 33.1264 64.2414 33.1264 64.9086 33.1264C65.038 33.7381 65.4462 35.7401 65.4462 35.7401H69.6178L65.9831 18.3159Z" fill="#00579F"/>
<path d="M29.8322 18.3159L25.4199 30.1977L24.9378 27.788C24.122 25.0074 21.5637 21.9864 18.7087 20.4842L22.7502 35.7219H27.5146L34.5963 18.3159H29.8322Z" fill="#00579F"/>
<path d="M21.3229 18.3159H14.0742L14 18.668C19.6545 20.1139 23.3994 23.5994 24.938 27.7887L23.3622 19.7806C23.1027 18.6677 22.3055 18.3526 21.3229 18.3159Z" fill="#FAA61A"/>
</svg>
